<?xml version="1.0" encoding="utf-8" ?><svg xmlns="http://www.w3.org/2000/svg" xmlns:xlink="http://www.w3.org/1999/xlink" width="24" height="24"><clipPath id="clip_0"><path d="M24 10L24 22.5L0.51 22.5L0.51 2.5L15.51 2.5L15.51 10L24 10Z" clip-rule="evenodd"/></clipPath><g clip-path="url(#clip_0)"><path fill="#4D144A" transform="matrix(1 0 0 1 2.51 4.39999)" d="M2.1 -0.9L16.1 -0.9Q17.3426 -0.9 18.2213 -0.0213Q19.1 0.8574 19.1 2.1L19.1 13.4611Q19.1 14.7037 18.2213 15.5824Q17.3426 16.4611 16.1 16.4611L2.1 16.4611Q-0.9 16.4611 -0.9 13.4611L-0.9 2.1Q-0.9 0.8574 -0.0213 -0.0213Q0.8574 -0.9 2.1 -0.9ZM2.1 0.9Q0.9 0.9 0.9 2.1L0.9 13.4611Q0.9 14.6611 2.1 14.6611L16.1 14.6611Q17.3 14.6611 17.3 13.4611L17.3 2.1Q17.3 0.9 16.1 0.9L2.1 0.9Z"/></g><path fill="#4D144A" transform="matrix(1 0 0 1 6.45666 8.78076)" d="M0.8333 1.6667C1.2936 1.6667 1.6667 1.2936 1.6667 0.8333C1.6667 0.3731 1.2936 0 0.8333 0C0.3731 0 0 0.3731 0 0.8333C0 1.2936 0.3731 1.6667 0.8333 1.6667Z"/><path fill="#4D144A" transform="matrix(1 0 0 1 6.45666 8.78076)" d="M1.9529 1.9529Q2.4167 1.4892 2.4167 0.8333Q2.4167 0.1775 1.9529 -0.2862Q1.4892 -0.75 0.8333 -0.75Q0.1775 -0.75 -0.2863 -0.2862Q-0.75 0.1775 -0.75 0.8333Q-0.75 1.4892 -0.2862 1.9529Q0.1775 2.4167 0.8333 2.4167Q1.4892 2.4167 1.9529 1.9529ZM0.8333 0.75Q0.9167 0.75 0.9167 0.8333Q0.9167 0.9167 0.8333 0.9167Q0.75 0.9167 0.75 0.8333Q0.75 0.75 0.8333 0.75Z" fill-rule="evenodd"/><path fill="#4D144A" transform="matrix(1 0 0 1 2.60998 10.8223)" d="M1.7316 2.4863L-0.5777 4.4193L0.5777 5.7995L2.8869 3.8665Q3.6902 3.1942 4.7105 3.4314L5.3423 3.5783Q6.3375 3.8097 7.3183 3.5235Q8.2991 3.2372 9.0136 2.5067L9.9675 1.5316Q10.5915 0.8936 11.4839 0.9001Q12.3763 0.9065 12.9911 1.5535L17.6901 6.4988L18.9949 5.259L14.2959 0.3136Q13.1543 -0.8879 11.497 -0.8999Q9.8396 -0.9119 8.6807 0.2729L7.7268 1.2481Q6.9007 2.0926 5.7499 1.8251L5.1181 1.6782Q3.2233 1.2376 1.7316 2.4863Z" fill-rule="evenodd"/><path fill="#4D144A" transform="matrix(1 0 0 1 16.61 2.5)" d="M3 5.9702L3.9036 3.9325L6 3.003L3.9036 2.002L3 0L2.0964 2.002L0 3.003L2.0964 3.9325L3 5.9702Z"/><circle fill="#4D144A" transform="matrix(1 0 0 1 19.8102 9)" cx="0.9" cy="0.9" r="0.9"/><circle fill="#4D144A" transform="matrix(1 0 0 1 14.8102 3.5)" cx="0.9" cy="0.9" r="0.9"/></svg>